<svg width="32" height="32" viewBox="0 0 32 32" fill="none" xmlns="http://www.w3.org/2000/svg">
<path d="M22 4C26.0502 4 29.3334 7.33333 29.3334 12C29.3334 21.3333 19.3334 26.6667 16 28.6667C12.6667 26.6667 2.66669 21.3333 2.66669 12C2.66669 7.33333 6.00002 4 10 4C12.48 4 14.6667 5.33333 16 6.66667C17.3334 5.33333 19.52 4 22 4ZM17.2452 24.8051C18.4207 24.0647 19.48 23.3273 20.4732 22.5372C24.445 19.3773 26.6667 15.9247 26.6667 12C26.6667 8.85435 24.6174 6.66667 22 6.66667C20.5655 6.66667 19.0124 7.42548 17.8856 8.55228L16 10.4379L14.1144 8.55228C12.9876 7.42548 11.4346 6.66667 10 6.66667C7.4121 6.66667 5.33335 8.87533 5.33335 12C5.33335 15.9247 7.55505 19.3773 11.5269 22.5372C12.52 23.3273 13.5794 24.0647 14.7548 24.8051C15.1528 25.0559 15.5482 25.2972 16 25.5669C16.4519 25.2972 16.8472 25.0559 17.2452 24.8051Z" fill="black"/>
</svg>
