<svg width="20" height="18" viewBox="0 0 20 18" fill="none" xmlns="http://www.w3.org/2000/svg">
<path d="M13.3709 0.440002L16.5819 6.002L20.0049 6.00218V8.0022L18.8379 8.002L18.0813 17.0852C18.0381 17.6035 17.6048 18.0022 17.0847 18.0022H2.92502C2.40493 18.0022 1.97166 17.6035 1.92847 17.0852L1.17088 8.002L0.00488281 8.0022V6.00218L3.42688 6.002L6.63886 0.440002L8.3709 1.44L5.73688 6.002H14.2719L11.6389 1.44L13.3709 0.440002ZM16.8309 8.002L3.17788 8.0022L3.84488 16.0022H16.1639L16.8309 8.002ZM11.0049 10.0022V14.0022H9.0049V10.0022H11.0049ZM7.00488 10.0022V14.0022H5.00488V10.0022H7.00488ZM15.0049 10.0022V14.0022H13.0049V10.0022H15.0049Z" fill="white"/>
</svg>
